<svg xmlns="http://www.w3.org/2000/svg" width="50" height="50" fill="none" viewBox="0 0 50 50"><path fill="#E7E7E7" d="M25.0002 8.33331C26.1508 8.33331 27.0835 9.26605 27.0835 10.4166V22.9167H39.5835C40.7341 22.9167 41.6668 23.8494 41.6668 25C41.6668 26.1506 40.7341 27.0833 39.5835 27.0833H27.0835V39.5833C27.0835 40.7339 26.1508 41.6666 25.0002 41.6666C23.8496 41.6666 22.9168 40.7339 22.9168 39.5833V27.0833H10.4168C9.26624 27.0833 8.3335 26.1506 8.3335 25C8.3335 23.8494 9.26624 22.9167 10.4168 22.9167H22.9168V10.4166C22.9168 9.26605 23.8496 8.33331 25.0002 8.33331Z"/></svg>